<svg width="47" height="49" viewBox="0 0 47 49" fill="none" xmlns="http://www.w3.org/2000/svg">
<path d="M45.0948 24.6587C45.0948 36.696 34.7204 47.5678 22.7063 47.5678C10.6923 47.5678 1.27051 37.8097 1.27051 25.7724C1.27051 13.7351 11.3274 2.86328 23.3415 2.86328C35.3555 2.86328 45.0948 12.6214 45.0948 24.6587Z" fill="#1C35BF"/>
<ellipse cx="23.9765" cy="23.3863" rx="21.7534" ry="21.7955" fill="#1F78FF"/>
<path d="M22.1179 6.12896C25.1928 5.82636 28.3464 6.35349 31.1481 7.6621C33.8105 8.89704 36.1508 10.8187 37.8887 13.1869C39.6406 15.5638 40.7762 18.3932 41.143 21.3262C41.5843 24.7609 40.9845 28.3245 39.4174 31.4136C37.8616 34.5106 35.3646 37.1225 32.3449 38.8162C29.503 40.423 26.2014 41.1922 22.9436 41.0229C20.1822 40.8905 17.4567 40.0827 15.0683 38.6881C12.3524 37.112 10.0752 34.7886 8.55002 32.0407C6.97496 29.2209 6.215 25.9555 6.37172 22.7296C6.50305 19.7501 7.41885 16.8119 9.00091 14.2867C10.8211 11.3643 13.5186 8.99791 16.6556 7.5858C18.3804 6.80432 20.2338 6.31139 22.1179 6.12896ZM20.4842 9.05755C17.7509 9.61888 15.2049 11.031 13.2761 13.05C11.1713 15.0629 9.7162 17.7477 9.2084 20.6202C8.951 21.9498 8.97726 23.3093 8.99915 24.6565C9.11297 27.5947 10.1916 30.4856 12.0372 32.7731C12.538 33.4072 13.1159 33.9729 13.6902 34.5395C15.6023 36.3893 18.0608 37.6619 20.6733 38.1549C22.1031 38.4346 23.5687 38.432 25.0185 38.3768C24.7016 36.7305 24.5072 35.05 23.9723 33.4537C23.714 32.7362 23.341 32.0653 22.9269 31.4259C22.8359 31.2882 22.7422 31.1443 22.5995 31.0557C22.0724 30.7558 21.5243 30.4847 20.9316 30.3444C20.0876 30.0348 19.128 29.7954 18.559 29.0393C17.9811 28.435 17.9041 27.5544 17.8874 26.7606C17.8682 25.638 18.3024 24.5863 18.6019 23.5251C17.7045 23.4628 16.7974 23.4128 15.9254 23.1786C15.1821 23.0006 14.493 22.655 13.8163 22.3068C13.1071 21.9375 12.5503 21.3543 12.0398 20.75C11.5382 20.1465 11.3499 19.3607 11.1582 18.6169C11.138 18.3739 10.977 17.9512 11.3026 17.8512C12.1677 17.7196 13.0467 17.7372 13.9196 17.7451C15.1392 17.7521 16.3378 18.0064 17.5215 18.2713C18.9284 18.6441 20.2724 19.33 21.3282 20.343C21.6417 20.1062 21.9892 19.9194 22.3543 19.7738C22.3342 19.0888 22.4795 18.416 22.5627 17.7398C22.8166 15.9242 23.7079 14.2718 24.7778 12.8115C24.9371 12.6001 25.2015 12.4133 25.4782 12.494C25.7969 12.5975 26.0552 12.8308 26.2679 13.0816C26.788 13.7736 27.294 14.5253 27.4446 15.3954C27.7554 16.7645 27.6206 18.1836 27.3842 19.5536C27.8027 19.672 28.2466 19.765 28.6012 20.0343C28.9155 20.2676 29.0643 20.6447 29.2368 20.9824C29.4706 20.9675 29.6894 21.0745 29.8435 21.2464C30.2699 21.7069 30.4441 22.3524 30.452 22.969C30.6341 23.0979 30.8206 23.2242 31.0334 23.2962C32.0446 23.6312 33.0961 23.8285 34.1064 24.1645C34.5635 24.3986 35.0669 24.139 35.551 24.1987C35.9564 24.2224 36.508 24.3223 36.6314 24.7819C36.7207 25.2196 36.7383 25.7195 36.4677 26.1011C36.2751 26.3756 36.3434 26.7405 36.1762 27.0282C35.7831 27.9403 34.8918 28.4552 34.1555 29.0577C33.9576 29.2481 33.6056 29.2551 33.5041 29.5392C33.2117 30.1725 32.6855 30.6479 32.1803 31.1092C31.6664 31.4969 31.0509 31.7521 30.4179 31.8583C29.7236 31.946 29.0206 31.9258 28.3245 31.874C28.6747 33.6896 29.2543 35.4526 29.8383 37.2041C31.9947 36.2796 33.8184 34.7176 35.3225 32.9371C37.7845 29.9515 38.9594 25.9555 38.5803 22.1077C38.3457 19.637 37.4711 17.2311 36.0702 15.1849C34.2684 12.5405 31.6033 10.4854 28.5697 9.46715C25.9799 8.58392 23.1502 8.45587 20.4842 9.05755Z" fill="white"/>
</svg>
