<svg width="17" height="17" viewBox="0 0 17 17" fill="none" xmlns="http://www.w3.org/2000/svg">
<path d="M7.87975 1.96503C9.03488 1.85158 10.2196 2.0492 11.2721 2.5398C12.2723 3.00278 13.1515 3.72323 13.8044 4.61105C14.4626 5.50215 14.8892 6.56293 15.027 7.6625C15.1927 8.95017 14.9674 10.2862 14.3787 11.4443C13.7942 12.6053 12.8562 13.5846 11.7218 14.2195C10.6541 14.8219 9.41379 15.1103 8.18991 15.0468C7.15253 14.9972 6.12863 14.6943 5.23136 14.1715C4.21108 13.5806 3.35558 12.7096 2.78262 11.6794C2.19091 10.6222 1.90542 9.39802 1.96429 8.18862C2.01363 7.07161 2.35767 5.97006 2.95201 5.02339C3.63582 3.92776 4.64919 3.0406 5.82768 2.5112C6.47563 2.21822 7.17193 2.03342 7.87975 1.96503ZM7.266 3.06296C6.23914 3.2734 5.28267 3.8028 4.55808 4.55975C3.76738 5.31439 3.22073 6.32092 3.02996 7.3978C2.93326 7.8963 2.94313 8.40597 2.95135 8.91104C2.99411 10.0126 3.39933 11.0964 4.09267 11.9539C4.28081 12.1917 4.49789 12.4038 4.71366 12.6162C5.432 13.3097 6.35557 13.7868 7.33704 13.9716C7.87415 14.0765 8.42476 14.0755 8.96943 14.0548C8.85037 13.4376 8.77734 12.8076 8.57638 12.2091C8.47935 11.9401 8.33924 11.6886 8.18367 11.4489C8.14946 11.3973 8.11426 11.3433 8.06065 11.3101C7.86265 11.1977 7.65675 11.0961 7.43407 11.0434C7.117 10.9274 6.75652 10.8376 6.54273 10.5542C6.32564 10.3276 6.2967 9.99746 6.29045 9.69988C6.28321 9.27899 6.44635 8.88473 6.55884 8.48686C6.22171 8.46351 5.88096 8.44477 5.55336 8.35697C5.27412 8.29022 5.01526 8.16067 4.76101 8.03013C4.4946 7.89169 4.28542 7.67303 4.09366 7.44647C3.9052 7.22024 3.83447 6.92562 3.76244 6.64678C3.75488 6.55569 3.69436 6.3972 3.81672 6.35972C4.14168 6.31039 4.47191 6.31697 4.79983 6.31993C5.258 6.32256 5.70828 6.41792 6.15297 6.51722C6.68153 6.65697 7.1864 6.91411 7.58307 7.2939C7.70082 7.20511 7.8314 7.13508 7.96855 7.08049C7.96099 6.82368 8.01559 6.57148 8.04684 6.31796C8.14222 5.6373 8.47705 5.0178 8.87898 4.47031C8.93884 4.39107 9.03817 4.32103 9.14211 4.35128C9.26183 4.39008 9.35886 4.47754 9.43878 4.57159C9.63416 4.83103 9.82426 5.11283 9.88084 5.43902C9.9976 5.95231 9.94695 6.48434 9.85814 6.99796C10.0154 7.04235 10.1821 7.0772 10.3153 7.17815C10.4334 7.26562 10.4893 7.40701 10.5541 7.53361C10.6419 7.52802 10.7242 7.56813 10.7821 7.63258C10.9422 7.80521 11.0077 8.04722 11.0106 8.27839C11.0791 8.32672 11.1491 8.37407 11.229 8.40104C11.6089 8.52664 12.004 8.60063 12.3835 8.72657C12.5552 8.81436 12.7443 8.71703 12.9262 8.73939C13.0785 8.74827 13.2857 8.78576 13.3321 8.95806C13.3656 9.12214 13.3722 9.30957 13.2706 9.45261C13.1982 9.55553 13.2239 9.69232 13.1611 9.80017C13.0134 10.1421 12.6786 10.3352 12.4019 10.5611C12.3276 10.6324 12.1954 10.635 12.1572 10.7416C12.0474 10.979 11.8497 11.1572 11.6599 11.3302C11.4668 11.4755 11.2356 11.5712 10.9978 11.611C10.737 11.6439 10.4729 11.6363 10.2114 11.6169C10.343 12.2976 10.5607 12.9585 10.7801 13.6151C11.5902 13.2686 12.2753 12.6829 12.8404 12.0154C13.7653 10.8961 14.2067 9.39802 14.0643 7.95548C13.9761 7.0292 13.6475 6.12724 13.1213 5.3601C12.4444 4.36871 11.4432 3.59828 10.3035 3.21652C9.33057 2.8854 8.26754 2.83739 7.266 3.06296Z" fill="#9695CE"/>
<path d="M8.30041 0H8.70201C8.92797 0.0078917 9.1536 0.0200581 9.37858 0.0414314C9.28846 0.386364 9.19406 0.73064 9.10492 1.0759C7.83237 0.974296 6.53745 1.20447 5.37771 1.73782C5.20273 1.43201 5.02314 1.12884 4.8452 0.824683C5.92304 0.313037 7.10712 0.0269633 8.30041 0Z" fill="#3B3A70"/>
<path d="M10.8588 1.43367C10.9522 1.094 11.0436 0.753999 11.1338 0.413341C12.083 0.729009 12.9832 1.19922 13.768 1.82168C14.2663 2.21495 14.7176 2.66675 15.1188 3.15867C14.8087 3.3359 14.5011 3.51675 14.19 3.69168C13.3115 2.65491 12.1494 1.86213 10.8588 1.43367Z" fill="#3B3A70"/>
<path d="M15.1771 5.19535C15.4833 5.02338 15.7843 4.8422 16.0901 4.66989C16.6749 5.84017 17.0019 7.14295 16.9999 8.4533C17.0019 8.85874 16.9726 9.26385 16.9197 9.666C16.5763 9.57689 16.2339 9.48383 15.8915 9.39176C16.074 7.96205 15.8185 6.48531 15.1771 5.19535Z" fill="#3B3A70"/>
<path d="M15.4725 11.1645C15.5215 11.1372 15.5755 11.1691 15.6245 11.1796C15.9067 11.2677 16.1984 11.323 16.4793 11.4147C16.1468 12.3584 15.6363 13.2397 14.988 14.0019C14.5022 14.573 13.9372 15.0751 13.3224 15.5039C13.1458 15.2004 12.9702 14.8963 12.7988 14.5898C13.1797 14.2995 13.5533 13.9963 13.8832 13.6474C14.5368 12.9697 15.0522 12.1618 15.4012 11.2881C15.4216 11.2454 15.4331 11.1941 15.4725 11.1645Z" fill="#3B3A70"/>
<path d="M7.01224 15.7988C8.41143 16.0819 9.88758 15.9527 11.2174 15.4342L11.2487 15.4885C11.4152 15.7775 11.5818 16.0668 11.7505 16.3549C10.7944 16.7458 9.7695 16.9707 8.73606 17H8.27624C7.75985 16.9803 7.24478 16.9224 6.73859 16.8188C6.82871 16.4785 6.92377 16.1395 7.01224 15.7988Z" fill="#3B3A70"/>
<path d="M1.40119 13.1617C1.69984 12.9782 2.00506 12.8059 2.30733 12.6287C3.05462 13.7447 4.10385 14.6549 5.31884 15.2293C5.22642 15.5739 5.13498 15.9192 5.04453 16.2645C4.29033 15.9212 3.57989 15.4776 2.95364 14.9344C2.35634 14.4198 1.83798 13.817 1.40119 13.1617Z" fill="#3B3A70"/>
<path d="M0 8.27444C0.0180901 7.85651 0.0552603 7.43923 0.124989 7.02656C0.463438 7.11502 0.80024 7.2084 1.13737 7.3008C1.08606 7.79173 1.03541 8.28529 1.05613 8.77983C1.07817 9.50883 1.22223 10.2309 1.45773 10.9201C1.49555 10.9994 1.43898 11.0757 1.36662 11.1056C1.09429 11.2476 0.841356 11.4239 0.565729 11.559C0.223333 10.6666 0.0319043 9.71829 0 8.76307V8.27444Z" fill="#3B3A70"/>
<path d="M0.618271 5.30222C1.18992 3.91296 2.12435 2.6733 3.31863 1.75885C3.49788 2.06498 3.67286 2.37375 3.85146 2.68054C2.89137 3.44406 2.12994 4.45025 1.64612 5.57646C1.30372 5.48505 0.961325 5.39232 0.618271 5.30222Z" fill="#3B3A70"/>
</svg>
