<svg width="13" height="13" viewBox="0 0 13 13" fill="none" xmlns="http://www.w3.org/2000/svg">
<path d="M0.0948384 3.72261C-0.177527 3.04566 0.156757 2.27858 0.841483 2.00931L5.71243 0.0937623C6.39716 -0.175512 7.17303 0.154979 7.4454 0.831936L10.8203 9.2201C11.0926 9.89705 10.7583 10.6641 10.0736 10.9334L5.20268 12.8489C4.51795 13.1182 3.74207 12.7877 3.46971 12.1108L0.0948384 3.72261Z" fill="#9695CE"/>
<path fill-rule="evenodd" clip-rule="evenodd" d="M10.4192 1.83726C10.4101 1.10876 9.80543 0.525498 9.06858 0.534493L8.05217 0.5469L10.4756 6.35061L10.4192 1.83726Z" fill="#9695CE"/>
<path fill-rule="evenodd" clip-rule="evenodd" d="M10.4192 1.83726C10.4101 1.10876 9.80543 0.525498 9.06858 0.534493L8.05217 0.5469L10.4756 6.35061L10.4192 1.83726Z" fill="#3B3A70" fill-opacity="0.5"/>
<path fill-rule="evenodd" clip-rule="evenodd" d="M12.8994 3.83306C13.1796 3.15926 12.8543 2.38842 12.1728 2.11136L11.2327 1.72917L11.1631 8.00762L12.8994 3.83306Z" fill="#3B3A70"/>
</svg>
